<svg xmlns="http://www.w3.org/2000/svg" class="brand__logo" fill="#999999" viewBox="0 0 265.755 97.837"><defs></defs><path class="a" d="M13.744 97.65H12.6l-2.253-4.922H3.4L1.146 97.65H0l6.57-14.328h.6zM6.861 85.115l-3.045 6.7h6.112zM23.086 97.8h-.313l-5.986-14.375h1.106l5.046 12.036 5.006-12.036h1.106zM39.414 97.8H39.1l-5.985-14.375h1.106l5.047 12.036 5.005-12.036h1.106zM57.12 97.837a7.3 7.3 0 1 1 7.549-7.3 7.328 7.328 0 0 1-7.549 7.3zm.041-13.578a6.279 6.279 0 1 0 6.32 6.28 6.238 6.238 0 0 0-6.32-6.28zM83.146 85.636a10.565 10.565 0 0 0-5.069-1.377 6.279 6.279 0 1 0 .147 12.557 10.52 10.52 0 0 0 5.067-1.459V96.5a10.883 10.883 0 0 1-5.047 1.334 7.24 7.24 0 0 1-7.571-7.279 7.331 7.331 0 0 1 7.467-7.32 12.076 12.076 0 0 1 5.006 1.189zM102.476 97.65h-1.146l-2.254-4.922h-6.945l-2.252 4.922h-1.148L95.3 83.322h.6zm-6.882-12.535l-3.045 6.7h6.111zM116.281 84.343h-5.34V97.65h-1.1V84.343H104.5v-.918h11.784zM123.037 97.65h-1.105V83.425h1.105zM150.9 97.65h-1.147l-2.253-4.922h-6.944L138.3 97.65h-1.148l6.571-14.328h.605zm-6.882-12.535l-3.046 6.7h6.111zM163.264 85.345a5.917 5.917 0 0 0-3.191-1.086 2.807 2.807 0 0 0-3 2.711c0 3.8 6.778 1.983 6.778 6.967a3.976 3.976 0 0 1-4.131 3.9 6.631 6.631 0 0 1-3.649-1.251v-1.294c1.585 1.149 2.481 1.524 3.588 1.524a2.879 2.879 0 0 0 3-2.838c0-4.045-6.78-2.271-6.78-6.965a3.931 3.931 0 0 1 4.09-3.775 6.758 6.758 0 0 1 3.294.9zM176.985 85.345a5.917 5.917 0 0 0-3.191-1.086 2.808 2.808 0 0 0-3 2.711c0 3.8 6.778 1.983 6.778 6.967a3.975 3.975 0 0 1-4.129 3.9 6.637 6.637 0 0 1-3.65-1.251v-1.294c1.586 1.149 2.483 1.524 3.587 1.524a2.878 2.878 0 0 0 3-2.838c0-4.045-6.777-2.271-6.777-6.965a3.929 3.929 0 0 1 4.087-3.775 6.756 6.756 0 0 1 3.3.9zM190.936 97.837a7.3 7.3 0 1 1 7.551-7.3 7.327 7.327 0 0 1-7.551 7.3zm.043-13.578a6.279 6.279 0 1 0 6.318 6.28 6.239 6.239 0 0 0-6.318-6.28zM216.962 85.636a10.568 10.568 0 0 0-5.068-1.377 6.279 6.279 0 1 0 .145 12.557 10.521 10.521 0 0 0 5.068-1.459V96.5a10.886 10.886 0 0 1-5.047 1.334 7.239 7.239 0 0 1-7.57-7.279 7.331 7.331 0 0 1 7.466-7.32 12.069 12.069 0 0 1 5.006 1.189zM224.259 97.65h-1.106V83.425h1.106zM243.633 97.65h-1.146l-2.253-4.922h-6.945l-2.253 4.922h-1.147l6.57-14.328h.6zm-6.881-12.535l-3.046 6.7h6.111zM257.438 84.343H252.1V97.65h-1.106V84.343h-5.34v-.918h11.784zM264.194 97.65h-1.105V83.425h1.105zM.158 55.185c4.533 0 7.3-.59 7.3-6.878V9.534c0-6.291-2.764-6.876-7.3-6.876V.977h22.065v1.681c-4.619 0-7.3.585-7.3 6.876v38.773c0 4.78.589 5.286 5.71 5.286h5.621c7.218 0 8.729-2.519 10.068-8.812h2.1l-.592 12.086H.158zM72.866 56.2a27.076 27.076 0 0 1-9.985 1.512c-13.008 0-20.314-7.139-20.314-21.236 0-12.25 4.956-19.05 17.038-19.05 7.557 0 14.351 4.2 14.351 13.933V33.2h-24.42c0 7.051 3.437 21.4 17.451 21.4a13.759 13.759 0 0 0 5.879-1.1zm-6.375-25.766c0-4.452-1.51-10.245-7.97-10.245-6.382 0-8.985 7.137-8.985 10.245zM151.908 56.947a23.955 23.955 0 0 1-6.118.762c-4.876 0-6.3-2.524-6.3-6.133h-.171a13.377 13.377 0 0 1-11.911 6.133c-5.8 0-10.077-4.036-10.077-9.487 0-12.166 15.778-12.166 22.159-12.758v-3.185c0-5.873-.089-12.09-7.135-12.09-5.2 0-5.872 2.19-5.872 4.866 0 3.445-2.52 4.37-3.94 4.37a3.78 3.78 0 0 1-4.037-3.781c0-5.455 8.139-8.219 13.931-8.219 11.5 0 13.6 5.537 13.6 13.34v20.811c0 2.941 1.009 3.943 3.6 3.943a10.367 10.367 0 0 0 2.266-.334zm-12.416-18.715c-3.953.09-14.685.844-14.685 8.642 0 4.37 2.855 7.305 5.7 7.305 5.458 0 8.981-5.294 8.981-10.993zM155.164 55.441c3.524 0 6.376-.758 6.376-6.21V26.32c0-5.045-3.945-5.285-6.376-5.452v-1.433l12.919-2.011V28.5h.17c1.182-3.1 4.952-11.076 13.261-11.076 8.9 0 9.735 4.869 9.735 12.673v19.134c0 5.452 2.848 6.21 6.385 6.21v1.426h-19.312v-1.426c3.522 0 6.38-.758 6.38-6.21V31.948c0-7.224-.08-10.495-5.624-10.495-4.955 0-11 9.479-11 17.454v10.324c0 5.452 2.858 6.21 6.381 6.21v1.426h-19.3zM229.971 56.361a25.249 25.249 0 0 1-8.979 1.348c-14.769 0-21.316-8.312-21.316-21.324 0-11.157 5.2-18.964 18.13-18.964 5.707 0 13.172 1.677 13.172 7.807a3.79 3.79 0 0 1-3.945 3.945c-3.187 0-3.862-2.607-4.534-5.375-.417-1.84-1.924-3.609-5.785-3.609-5.708 0-10.073 4.206-10.073 13.515 0 10.661 6.965 20.891 18.634 20.891a21.8 21.8 0 0 0 4.7-.666zM264.088 56.2a27.151 27.151 0 0 1-9.992 1.512c-13.007 0-20.31-7.139-20.31-21.236 0-12.25 4.952-19.05 17.034-19.05 7.555 0 14.356 4.2 14.356 13.933V33.2h-24.421c0 7.051 3.436 21.4 17.454 21.4a13.813 13.813 0 0 0 5.879-1.1zm-6.383-25.761c0-4.452-1.507-10.245-7.971-10.245-6.376 0-8.979 7.137-8.979 10.245z"></path><path d="M115.8 71.812h149.955M.2 71.812h74.882" fill="none" stroke="#fff" stroke-miterlimit="10" stroke-width="1.232px" class="hover-stroke"></path><g><path class="a" d="M101.563 50.072h-9.985c-2.714 0-6.943 0-6.943-3.382a6.156 6.156 0 0 1 1.522-3.809 18.717 18.717 0 0 0 7.7 1.267c10.156 0 15.5-4.822 15.5-13.37 0-.12 0-.235-.008-.35l.008.011c0-8.549-5.347-13.37-15.5-13.37l-.049.021c-7.6.241-14.756 2.908-14.756 13.264 0 7.193 2.958 9.731 4.9 11.339-.924 1.019-3.634 4.238-3.634 7.362a6.591 6.591 0 0 0 3.634 6.013c-2.709 1.346-6.595 3.637-6.595 8.883 0 7.615 8.63 10.752 16.921 10.752 11.251 0 20.735-5.422 20.735-15.073.003-9.386-9.396-9.558-13.45-9.558zm-7.539-30.215c6.1 0 8.3 5.076 8.3 11.427 0 4.491-.94 10.074-8.043 10.074-6.091 0-8.2-5.25-8.2-11.682-.004-4.909 1.263-9.819 7.943-9.819zm.676 52.051c-7.359 0-11.849-4.321-11.849-9.311 0-3.808 2.376-5.246 4.069-6.515h14.8c4.24 0 7.783 1.441 7.783 5.757.006 6.092-7.098 10.069-14.803 10.069z"></path><path d="M117.864 0c-7.018 0-10.216 7.577-12.33 12.7a1.133 1.133 0 0 0-.1.379.582.582 0 0 0 .549.549.463.463 0 0 0 .476-.216c1.263-3.185 3.053-4.8 5.32-4.8a4.955 4.955 0 0 1 2.575.877 6.421 6.421 0 0 0 3.646 1.06c3.4 0 5.344-1.847 5.344-5.068A5.084 5.084 0 0 0 117.864 0z" fill="#fff" class="hover-fill"></path></g></svg>